<svg width="66" height="65" viewBox="0 0 66 65" fill="none" xmlns="http://www.w3.org/2000/svg">
<rect x="0.769531" y="0.280273" width="64.118" height="64.118" rx="8.43717" fill="white" fill-opacity="0.2" stroke="url(#paint0_linear_197_32)" stroke-width="0.527323"/>
<rect x="8.78448" y="8.29492" width="48.0885" height="48.0885" rx="8.43717" fill="#DCB8FE"/>
<path fill-rule="evenodd" clip-rule="evenodd" d="M35.1886 22.3283C34.9651 22.2962 34.7406 22.3623 34.562 22.5045C34.3784 22.6486 34.2637 22.8569 34.2388 23.0901C34.1859 23.5617 34.5261 23.9882 34.997 24.0412C38.2447 24.4037 40.7689 26.9336 41.1341 30.1913C41.183 30.6278 41.5492 30.9572 41.9862 30.9572C42.0191 30.9572 42.051 30.9552 42.084 30.9512C42.3124 30.9262 42.516 30.8131 42.6597 30.6328C42.8023 30.4526 42.8672 30.2284 42.8412 29.9991C42.3863 25.9344 39.2404 22.7798 35.1886 22.3283ZM35.251 25.8166C34.774 25.7285 34.336 26.0329 34.2452 26.4984C34.1544 26.964 34.4597 27.4185 34.9237 27.5096C36.3205 27.7819 37.3991 28.8632 37.6725 30.2648V30.2658C37.7503 30.6692 38.1055 30.9626 38.5145 30.9626C38.5694 30.9626 38.6243 30.9576 38.6802 30.9476C39.1441 30.8545 39.4494 30.4009 39.3586 29.9344C38.9506 27.841 37.3392 26.2241 35.251 25.8166ZM36.8358 35.435C37.2881 35.1742 37.799 34.8797 38.4434 35.0167C39.0271 35.1399 41.0166 36.7548 41.5613 37.3144C41.9185 37.6808 42.1171 38.0593 42.148 38.4377C42.2019 39.9224 40.1845 41.6174 39.8173 41.8286C39.3294 42.18 38.7617 42.3572 38.1241 42.3572C37.4726 42.3572 36.7463 42.172 35.9541 41.8026C31.6558 40.0085 25.0897 33.5721 23.3536 29.3072C22.6333 27.7193 22.6283 26.4098 23.3417 25.4257C23.626 24.9641 25.2473 23.0349 26.699 23.096C27.0852 23.129 27.4603 23.3272 27.8285 23.6877C28.3852 24.2333 29.9596 26.2286 30.0814 26.8143C30.2161 27.465 29.9207 27.9826 29.6583 28.4371C29.6024 28.5349 29.527 28.6508 29.4443 28.7778C29.1308 29.26 28.7135 29.9017 28.8611 30.3113C29.9197 32.9103 32.3652 35.1779 34.9653 36.2432C35.3674 36.3893 36.0087 35.969 36.4893 35.6541C36.6145 35.572 36.7288 35.4971 36.8251 35.4412L36.8358 35.435Z" fill="#610DB2"/>
<defs>
<linearGradient id="paint0_linear_197_32" x1="0.769531" y1="0.280273" x2="64.8875" y2="64.3983" gradientUnits="userSpaceOnUse">
<stop stop-color="white"/>
<stop offset="1" stop-color="white" stop-opacity="0"/>
</linearGradient>
</defs>
</svg>
