<svg width="66" height="66" viewBox="0 0 66 66" fill="none" xmlns="http://www.w3.org/2000/svg">
<rect x="0.769531" y="0.634766" width="64.118" height="64.118" rx="8.43717" fill="white" fill-opacity="0.2" stroke="url(#paint0_linear_197_30)" stroke-width="0.527323"/>
<rect x="8.78448" y="8.64941" width="48.0885" height="48.0885" rx="8.43717" fill="#DCB8FE"/>
<path fill-rule="evenodd" clip-rule="evenodd" d="M24.3127 31.0089C24.3127 26.4005 28.1637 22.6758 32.8218 22.6758C37.4931 22.6758 41.3441 26.4005 41.3441 31.0089C41.3441 33.3311 40.4995 35.487 39.1094 37.3143C37.5759 39.3299 35.6858 41.0861 33.5583 42.4646C33.0713 42.7832 32.6319 42.8072 32.0975 42.4646C29.9578 41.0861 28.0677 39.3299 26.5473 37.3143C25.1562 35.487 24.3127 33.3311 24.3127 31.0089ZM30.0175 31.2681C30.0175 32.8119 31.2772 34.0261 32.8218 34.0261C34.3675 34.0261 35.6393 32.8119 35.6393 31.2681C35.6393 29.7363 34.3675 28.463 32.8218 28.463C31.2772 28.463 30.0175 29.7363 30.0175 31.2681Z" fill="#610DB2"/>
<defs>
<linearGradient id="paint0_linear_197_30" x1="0.769531" y1="0.634766" x2="64.8875" y2="64.7528" gradientUnits="userSpaceOnUse">
<stop stop-color="white"/>
<stop offset="1" stop-color="white" stop-opacity="0"/>
</linearGradient>
</defs>
</svg>
