<svg width="66" height="65" viewBox="0 0 66 65" fill="none" xmlns="http://www.w3.org/2000/svg">
<rect x="0.769531" y="0.458008" width="64.118" height="64.118" rx="8.43717" fill="white" fill-opacity="0.2" stroke="url(#paint0_linear_197_31)" stroke-width="0.527323"/>
<rect x="8.78448" y="8.47266" width="48.0885" height="48.0885" rx="8.43717" fill="#DCB8FE"/>
<path fill-rule="evenodd" clip-rule="evenodd" d="M32.8289 42.5359C27.2987 42.5359 22.8104 38.0577 22.8104 32.5175C22.8104 26.9873 27.2987 22.499 32.8289 22.499C38.3691 22.499 42.8473 26.9873 42.8473 32.5175C42.8473 38.0577 38.3691 42.5359 32.8289 42.5359ZM36.0247 36.234C36.145 36.3042 36.2752 36.3443 36.4155 36.3443C36.6659 36.3443 36.9164 36.214 37.0566 35.9736C37.267 35.6229 37.1568 35.1621 36.7962 34.9417L33.2296 32.8178V28.1892C33.2296 27.7685 32.889 27.4379 32.4782 27.4379C32.0675 27.4379 31.7268 27.7685 31.7268 28.1892V33.2486C31.7268 33.509 31.8671 33.7495 32.0975 33.8897L36.0247 36.234Z" fill="#610DB2"/>
<defs>
<linearGradient id="paint0_linear_197_31" x1="0.769531" y1="0.458008" x2="64.8875" y2="64.576" gradientUnits="userSpaceOnUse">
<stop stop-color="white"/>
<stop offset="1" stop-color="white" stop-opacity="0"/>
</linearGradient>
</defs>
</svg>
